<svg width="73" height="10" viewBox="0 0 73 10" fill="none" xmlns="http://www.w3.org/2000/svg">
<path d="M0.0170455 9L1.46591 0.272727H5.23295C5.88068 0.272727 6.42614 0.400568 6.86932 0.65625C7.3125 0.911932 7.63068 1.27131 7.82386 1.73438C8.01705 2.19744 8.0625 2.73864 7.96023 3.35795C7.85795 3.98864 7.63068 4.53267 7.27841 4.99006C6.92898 5.4446 6.48295 5.79545 5.94034 6.04261C5.40057 6.28693 4.79545 6.40909 4.125 6.40909H1.875L2.18182 4.56818H3.95455C4.23864 4.56818 4.48864 4.51989 4.70455 4.4233C4.92045 4.32386 5.09517 4.18466 5.22869 4.00568C5.36222 3.82386 5.44886 3.60795 5.48864 3.35795C5.52841 3.10795 5.50994 2.89489 5.43324 2.71875C5.35938 2.53977 5.23153 2.40341 5.04972 2.30966C4.87074 2.21307 4.64205 2.16477 4.36364 2.16477H3.52841L2.38636 9H0.0170455ZM17.2855 4.78977C17.1264 5.73864 16.811 6.53409 16.3394 7.17614C15.8678 7.81818 15.2954 8.30256 14.6221 8.62926C13.9488 8.95597 13.2286 9.11932 12.4616 9.11932C11.6434 9.11932 10.9332 8.94176 10.3309 8.58665C9.72864 8.23153 9.28972 7.71165 9.01415 7.02699C8.73858 6.34233 8.68318 5.50568 8.84795 4.51705C9.00136 3.56818 9.31386 2.76989 9.78545 2.12216C10.257 1.47443 10.8323 0.984375 11.5113 0.651989C12.1903 0.319602 12.9161 0.153409 13.6889 0.153409C14.5014 0.153409 15.2073 0.332386 15.8068 0.690341C16.409 1.0483 16.8465 1.57244 17.1193 2.26278C17.3948 2.95312 17.4502 3.79545 17.2855 4.78977ZM14.8991 4.51705C14.9786 4.01705 14.9843 3.59659 14.9161 3.25568C14.848 2.91193 14.7045 2.65341 14.4857 2.48011C14.267 2.30398 13.973 2.21591 13.6036 2.21591C13.1832 2.21591 12.811 2.31818 12.4872 2.52273C12.1633 2.72727 11.8948 3.02131 11.6818 3.40483C11.4687 3.78835 11.3195 4.25 11.2343 4.78977C11.1434 5.29545 11.1349 5.71591 11.2087 6.05114C11.2855 6.38636 11.436 6.63778 11.6605 6.8054C11.8877 6.97301 12.1832 7.05682 12.5468 7.05682C12.9616 7.05682 13.3281 6.95739 13.6462 6.75852C13.9673 6.55966 14.2329 6.27131 14.4431 5.89347C14.6562 5.51562 14.8082 5.05682 14.8991 4.51705ZM17.9228 9L19.3717 0.272727H23.1387C23.7865 0.272727 24.3333 0.390625 24.7794 0.62642C25.2254 0.862216 25.5464 1.2017 25.7424 1.64489C25.9385 2.08807 25.9853 2.61932 25.8831 3.23864C25.7808 3.86364 25.5549 4.39062 25.2055 4.8196C24.8589 5.24574 24.4171 5.5696 23.8802 5.79119C23.3461 6.00994 22.7467 6.11932 22.0819 6.11932H19.8319L20.1387 4.27841H21.9115C22.1899 4.27841 22.4342 4.24432 22.6444 4.17614C22.8546 4.10511 23.0251 3.99432 23.1558 3.84375C23.2865 3.69034 23.3717 3.48864 23.4115 3.23864C23.4512 2.98864 23.4313 2.78551 23.3518 2.62926C23.2723 2.47017 23.1402 2.35369 22.9555 2.27983C22.7708 2.20312 22.5421 2.16477 22.2694 2.16477H21.4342L20.2921 9H17.9228ZM23.7012 4.99432L25.2183 9H22.6444L21.1785 4.99432H23.7012ZM27.182 2.18182L27.5059 0.272727H35.0911L34.7672 2.18182H32.1422L31.0172 9H28.682L29.807 2.18182H27.182ZM34.7739 9L36.2228 0.272727H42.3591L42.0353 2.18182H38.2682L38.0296 3.68182H41.4216L41.0978 5.59091H37.7057L37.1432 9H34.7739ZM51.1751 4.78977C51.0161 5.73864 50.7007 6.53409 50.2291 7.17614C49.7575 7.81818 49.1851 8.30256 48.5118 8.62926C47.8385 8.95597 47.1183 9.11932 46.3513 9.11932C45.5331 9.11932 44.8229 8.94176 44.2206 8.58665C43.6183 8.23153 43.1794 7.71165 42.9038 7.02699C42.6283 6.34233 42.5729 5.50568 42.7376 4.51705C42.8911 3.56818 43.2036 2.76989 43.6751 2.12216C44.1467 1.47443 44.722 0.984375 45.401 0.651989C46.08 0.319602 46.8058 0.153409 47.5786 0.153409C48.3911 0.153409 49.097 0.332386 49.6964 0.690341C50.2987 1.0483 50.7362 1.57244 51.0089 2.26278C51.2845 2.95312 51.3399 3.79545 51.1751 4.78977ZM48.7888 4.51705C48.8683 4.01705 48.874 3.59659 48.8058 3.25568C48.7376 2.91193 48.5942 2.65341 48.3754 2.48011C48.1567 2.30398 47.8626 2.21591 47.4933 2.21591C47.0729 2.21591 46.7007 2.31818 46.3768 2.52273C46.053 2.72727 45.7845 3.02131 45.5714 3.40483C45.3584 3.78835 45.2092 4.25 45.124 4.78977C45.0331 5.29545 45.0246 5.71591 45.0984 6.05114C45.1751 6.38636 45.3257 6.63778 45.5501 6.8054C45.7774 6.97301 46.0729 7.05682 46.4365 7.05682C46.8513 7.05682 47.2178 6.95739 47.5359 6.75852C47.857 6.55966 48.1226 6.27131 48.3328 5.89347C48.5459 5.51562 48.6979 5.05682 48.7888 4.51705ZM51.8125 9L53.2614 0.272727H55.6307L54.5057 7.09091H58.0341L57.7102 9H51.8125ZM62.7262 0.272727L61.2773 9H58.908L60.3568 0.272727H62.7262ZM71.7936 4.78977C71.6345 5.73864 71.3191 6.53409 70.8476 7.17614C70.376 7.81818 69.8035 8.30256 69.1302 8.62926C68.4569 8.95597 67.7368 9.11932 66.9697 9.11932C66.1515 9.11932 65.4413 8.94176 64.839 8.58665C64.2368 8.23153 63.7978 7.71165 63.5223 7.02699C63.2467 6.34233 63.1913 5.50568 63.3561 4.51705C63.5095 3.56818 63.822 2.76989 64.2936 2.12216C64.7652 1.47443 65.3405 0.984375 66.0194 0.651989C66.6984 0.319602 67.4243 0.153409 68.197 0.153409C69.0095 0.153409 69.7155 0.332386 70.3149 0.690341C70.9172 1.0483 71.3547 1.57244 71.6274 2.26278C71.903 2.95312 71.9584 3.79545 71.7936 4.78977ZM69.4072 4.51705C69.4868 4.01705 69.4924 3.59659 69.4243 3.25568C69.3561 2.91193 69.2126 2.65341 68.9939 2.48011C68.7751 2.30398 68.4811 2.21591 68.1118 2.21591C67.6913 2.21591 67.3191 2.31818 66.9953 2.52273C66.6714 2.72727 66.403 3.02131 66.1899 3.40483C65.9768 3.78835 65.8277 4.25 65.7424 4.78977C65.6515 5.29545 65.643 5.71591 65.7169 6.05114C65.7936 6.38636 65.9441 6.63778 66.1686 6.8054C66.3959 6.97301 66.6913 7.05682 67.0549 7.05682C67.4697 7.05682 67.8362 6.95739 68.1544 6.75852C68.4754 6.55966 68.741 6.27131 68.9512 5.89347C69.1643 5.51562 69.3163 5.05682 69.4072 4.51705Z" fill="#9A9A9A"/>
</svg>
